<?xml version="1.0" encoding="UTF-8"?>
<svg id="Camada_1" xmlns="http://www.w3.org/2000/svg" version="1.1" viewBox="0 0 350 350">
  <!-- Generator: Adobe Illustrator 30.6.0, SVG Export Plug-In . SVG Version: 2.1.4 Build 109)  -->
  <defs>
    <style>
      .st0 {
        fill: #010101;
      }

      .st1 {
        fill: #fff;
      }
    </style>
  </defs>
  <rect class="st0" width="350" height="350" rx="19.39" ry="19.39"/>
  <g>
    <path class="st1" d="M80.01,158c2.38,0,4.61-.52,6.69-1.56s3.75-2.7,5.02-4.98l10.71,7.07c-1.07,1.82-2.4,3.46-4.02,4.9s-3.42,2.67-5.4,3.69c-1.97,1.01-4.08,1.78-6.31,2.32-2.23.53-4.49.8-6.77.8-3.75,0-7.24-.67-10.45-2.01s-6.01-3.2-8.4-5.55c-2.38-2.36-4.25-5.12-5.58-8.29-1.34-3.16-2.01-6.57-2.01-10.22s.67-7.06,2.01-10.22c1.34-3.16,3.2-5.93,5.58-8.29s5.18-4.2,8.4-5.55,6.67-2.01,10.38-2.01c2.33,0,4.62.28,6.87.84,2.25.56,4.37,1.34,6.34,2.36s3.77,2.24,5.4,3.69c1.62,1.44,2.93,3.08,3.95,4.9l-10.64,6.99c-1.11-2.23-2.77-3.9-4.98-5.02s-4.47-1.67-6.81-1.67c-1.93,0-3.71.35-5.36,1.03s-3.08,1.64-4.29,2.85c-1.21,1.21-2.18,2.69-2.89,4.41-.71,1.72-1.07,3.63-1.07,5.7s.35,3.96,1.07,5.66c.71,1.7,1.67,3.16,2.89,4.37,1.21,1.21,2.66,2.15,4.33,2.81s3.44.99,5.32.99h0Z"/>
    <path class="st1" d="M120.36,119.17h14.82l18.62,50.01h-14.13l-2.96-7.98h-17.86l-2.96,7.98h-14.13l18.62-50.01h0ZM122.71,150.56h10.11l-4.94-16.49h-.15s-5.02,16.49-5.02,16.49Z"/>
    <path class="st1" d="M156.38,119.17h14.06l19.99,28.2v-28.2h13v50.01h-13.23l-20.82-30.4v30.4h-13v-50.01h0Z"/>
    <path class="st1" d="M250.39,131.33h-14.52v37.85h-12.92v-37.85h-14.52v-12.16h41.95v12.16Z"/>
    <path class="st1" d="M263.08,119.17h14.82l18.62,50.01h-14.13l-2.96-7.98h-17.86l-2.96,7.98h-14.13l18.62-50.01h0ZM265.44,150.56h10.11l-4.94-16.49h-.15l-5.02,16.49Z"/>
    <g>
      <path class="st1" d="M151.74,227.49c0-1.17.41-2.13,1.21-2.89.81-.76,1.75-1.14,2.81-1.14,1.17,0,2.14.38,2.93,1.14s1.18,1.72,1.18,2.89-.39,2.07-1.18,2.85-1.76,1.18-2.93,1.18c-1.07,0-2-.39-2.81-1.18-.81-.78-1.21-1.74-1.21-2.85Z"/>
      <path class="st1" d="M172.8,210.84v19.99h-4.56v-50.01h17.86c2.38,0,4.55.37,6.5,1.1,1.95.74,3.65,1.76,5.09,3.08s2.56,2.9,3.34,4.75c.78,1.85,1.18,3.92,1.18,6.19s-.39,4.33-1.18,6.15c-.78,1.83-1.9,3.38-3.34,4.68-1.44,1.29-3.14,2.3-5.09,3-1.95.71-4.12,1.07-6.5,1.07h-13.3,0ZM172.8,185.23v21.28h13.3c3.65,0,6.48-1,8.51-3s3.04-4.52,3.04-7.57-1.01-5.65-3.04-7.67-4.86-3.04-8.51-3.04h-13.3Z"/>
      <path class="st1" d="M206.77,230.83v-50.01h19.99c2.33,0,4.45.35,6.38,1.03s3.59,1.64,4.98,2.89c1.39,1.24,2.47,2.77,3.23,4.6s1.14,3.88,1.14,6.16c0,3.75-1.08,6.81-3.23,9.19-2.15,2.38-4.98,3.96-8.47,4.71l13.15,21.43h-5.17l-12.84-20.9h-14.59v20.9h-4.56,0ZM211.33,185.23v20.29h15.2c3.69,0,6.51-.91,8.43-2.73,1.93-1.83,2.89-4.26,2.89-7.3s-.98-5.58-2.93-7.45-4.75-2.81-8.4-2.81h-15.2,0Z"/>
      <path class="st1" d="M245,205.98c0-3.59.68-6.99,2.05-10.18,1.37-3.2,3.22-5.97,5.55-8.32,2.33-2.36,5.05-4.22,8.17-5.58,3.12-1.37,6.44-2.05,9.99-2.05s6.87.68,9.99,2.05,5.84,3.23,8.17,5.58c2.33,2.36,4.18,5.13,5.55,8.32,1.37,3.2,2.05,6.59,2.05,10.18s-.68,6.89-2.05,10.03-3.22,5.89-5.55,8.25c-2.33,2.36-5.05,4.22-8.17,5.58s-6.45,2.05-9.99,2.05-6.88-.68-9.99-2.05c-3.12-1.37-5.84-3.23-8.17-5.58-2.33-2.36-4.18-5.11-5.55-8.25-1.37-3.14-2.05-6.48-2.05-10.03ZM249.56,205.98c0,2.94.56,5.7,1.67,8.29,1.11,2.58,2.63,4.84,4.56,6.77s4.18,3.46,6.77,4.6c2.58,1.14,5.32,1.71,8.21,1.71s5.62-.57,8.21-1.71c2.58-1.14,4.82-2.67,6.73-4.6,1.9-1.93,3.41-4.18,4.52-6.77,1.11-2.58,1.67-5.35,1.67-8.29s-.56-5.79-1.67-8.4c-1.11-2.61-2.62-4.89-4.52-6.84-1.9-1.95-4.14-3.49-6.73-4.64-2.58-1.14-5.32-1.71-8.21-1.71s-5.62.57-8.21,1.71-4.84,2.69-6.77,4.64-3.45,4.23-4.56,6.84c-1.11,2.61-1.67,5.41-1.67,8.4h0Z"/>
    </g>
  </g>
</svg>