<?xml version="1.0" encoding="UTF-8"?>
<svg id="Camada_1" xmlns="http://www.w3.org/2000/svg" version="1.1" viewBox="0 0 488.98 64.74">
  <!-- Generator: Adobe Illustrator 30.6.0, SVG Export Plug-In . SVG Version: 2.1.4 Build 109)  -->
  <defs>
    <style>
      .st0 {
        fill: #010101;
      }
    </style>
  </defs>
  <path class="st0" d="M32.94,49.55c2.96,0,5.73-.64,8.31-1.93s4.66-3.35,6.23-6.18l13.31,8.78c-1.32,2.26-2.99,4.29-5,6.09-2.01,1.79-4.25,3.32-6.7,4.58-2.45,1.26-5.07,2.22-7.83,2.88-2.77.66-5.57.99-8.4.99-4.66,0-8.98-.83-12.98-2.5-4-1.67-7.47-3.96-10.43-6.89-2.96-2.93-5.27-6.35-6.94-10.29-1.67-3.93-2.5-8.16-2.5-12.69s.83-8.76,2.5-12.69c1.67-3.93,3.98-7.36,6.94-10.29,2.96-2.93,6.43-5.22,10.43-6.89,4-1.67,8.29-2.5,12.88-2.5,2.89,0,5.74.35,8.54,1.04,2.8.69,5.43,1.67,7.88,2.93,2.45,1.26,4.69,2.78,6.7,4.58,2.01,1.79,3.65,3.82,4.91,6.09l-13.21,8.68c-1.38-2.77-3.44-4.84-6.18-6.23-2.74-1.38-5.55-2.08-8.45-2.08-2.39,0-4.61.42-6.65,1.27-2.05.85-3.82,2.03-5.33,3.54-1.51,1.51-2.71,3.34-3.59,5.47-.88,2.14-1.32,4.5-1.32,7.08s.44,4.92,1.32,7.03c.88,2.11,2.08,3.92,3.59,5.43,1.51,1.51,3.3,2.67,5.38,3.49,2.08.82,4.28,1.23,6.61,1.23Z"/>
  <path class="st0" d="M83.05,1.32h18.4l23.12,62.1h-17.56l-3.68-9.91h-22.18l-3.68,9.91h-17.56L83.05,1.32ZM85.98,40.3h12.55l-6.13-20.48h-.19l-6.23,20.48Z"/>
  <path class="st0" d="M127.79,1.32h17.46l24.82,35.02V1.32h16.14v62.1h-16.42l-25.86-37.75v37.75h-16.14V1.32Z"/>
  <path class="st0" d="M244.54,16.42h-18.03v47h-16.04V16.42h-18.03V1.32h52.1v15.1Z"/>
  <path class="st0" d="M260.3,1.32h18.4l23.12,62.1h-17.56l-3.68-9.91h-22.18l-3.68,9.91h-17.56L260.3,1.32ZM263.22,40.3h12.55l-6.13-20.48h-.19l-6.23,20.48Z"/>
  <path class="st0" d="M309.19,59.27c0-1.45.5-2.64,1.51-3.59,1.01-.94,2.17-1.42,3.49-1.42,1.45,0,2.66.47,3.63,1.42s1.46,2.14,1.46,3.59-.49,2.56-1.46,3.54c-.98.97-2.19,1.46-3.63,1.46-1.32,0-2.49-.49-3.49-1.46-1.01-.98-1.51-2.15-1.51-3.54Z"/>
  <path class="st0" d="M335.33,38.6v24.82h-5.66V1.32h22.18c2.96,0,5.65.46,8.07,1.37,2.42.91,4.53,2.19,6.32,3.82,1.79,1.64,3.18,3.6,4.15,5.9.97,2.3,1.46,4.86,1.46,7.69s-.49,5.38-1.46,7.64c-.98,2.27-2.36,4.2-4.15,5.8-1.79,1.6-3.9,2.85-6.32,3.73-2.42.88-5.11,1.32-8.07,1.32h-16.52ZM335.33,6.8v26.43h16.52c4.53,0,8.05-1.24,10.57-3.73,2.52-2.48,3.78-5.62,3.78-9.39s-1.26-7.02-3.78-9.53c-2.52-2.52-6.04-3.78-10.57-3.78h-16.52Z"/>
  <path class="st0" d="M377.52,63.42V1.32h24.82c2.89,0,5.54.42,7.93,1.27,2.39.85,4.45,2.05,6.18,3.59,1.73,1.54,3.07,3.44,4.01,5.71.94,2.27,1.42,4.81,1.42,7.65,0,4.66-1.34,8.46-4.01,11.42-2.68,2.96-6.18,4.91-10.52,5.85l16.33,26.62h-6.42l-15.95-25.95h-18.12v25.95h-5.66ZM383.18,6.8v25.2h18.88c4.59,0,8.08-1.13,10.48-3.4,2.39-2.27,3.59-5.29,3.59-9.06s-1.21-6.92-3.63-9.25c-2.42-2.33-5.9-3.49-10.43-3.49h-18.88Z"/>
  <path class="st0" d="M424.99,32.56c0-4.47.85-8.68,2.55-12.65,1.7-3.96,4-7.41,6.89-10.33,2.89-2.93,6.28-5.24,10.15-6.94,3.87-1.7,8.01-2.55,12.41-2.55s8.54.85,12.41,2.55c3.87,1.7,7.25,4.01,10.15,6.94,2.89,2.93,5.19,6.37,6.89,10.33,1.7,3.96,2.55,8.18,2.55,12.65s-.85,8.56-2.55,12.46c-1.7,3.9-4,7.31-6.89,10.24-2.9,2.93-6.28,5.24-10.15,6.94s-8.01,2.55-12.41,2.55-8.54-.85-12.41-2.55c-3.87-1.7-7.25-4.01-10.15-6.94-2.89-2.93-5.19-6.34-6.89-10.24-1.7-3.9-2.55-8.05-2.55-12.46ZM430.65,32.56c0,3.65.69,7.08,2.08,10.29,1.38,3.21,3.27,6.01,5.66,8.4,2.39,2.39,5.19,4.29,8.4,5.71,3.21,1.42,6.61,2.12,10.19,2.12s6.98-.71,10.19-2.12c3.21-1.42,5.99-3.32,8.35-5.71,2.36-2.39,4.23-5.19,5.61-8.4,1.38-3.21,2.08-6.64,2.08-10.29s-.69-7.19-2.08-10.43c-1.38-3.24-3.26-6.07-5.61-8.49-2.36-2.42-5.14-4.34-8.35-5.76s-6.61-2.12-10.19-2.12-6.99.71-10.19,2.12-6.01,3.34-8.4,5.76c-2.39,2.42-4.28,5.25-5.66,8.49-1.38,3.24-2.08,6.72-2.08,10.43Z"/>
</svg>