<?xml version="1.0" encoding="UTF-8"?>
<svg id="Layer_1" xmlns="http://www.w3.org/2000/svg" version="1.1" viewBox="0 0 241.72 97.52">
  <!-- Generator: Adobe Illustrator 30.5.1, SVG Export Plug-In . SVG Version: 2.1.4 Build 3)  -->
  <defs>
    <style>
      .st0 {
        font-family: HelveticaLTStd-Blk, 'Helvetica LT Std';
        font-size: 12px;
      }

      .st0, .st1 {
        fill: #fff;
      }

      .st2 {
        fill: none;
        stroke: #010101;
        stroke-linecap: round;
        stroke-linejoin: round;
        stroke-width: 2px;
      }

      .st3 {
        fill: #fdc700;
      }
    </style>
  </defs>
  <g>
    <g>
      <path class="st1" d="M228.07,15.65c-.27-.84-.78-1.52-1.44-2,0,0,0,0,0,0l-.03-.02s-.02-.01-.02-.02l-2.11-1.46s.12.34.27.77c-.18-.02-.36-.04-.54-.04l-9.11.16-2.67-8.71c-.25-.83-.74-1.51-1.37-2h0s-.02-.02-.05-.04c-.04-.03-.07-.05-.11-.07-.55-.37-2.31-1.54-2.31-1.54l-.41.85c-1.61.16-2.93,1.21-3.42,2.8l-2.67,8.71-9.11-.16s-.05,0-.07,0c-1.76,0-3.25,1.08-3.8,2.76-.11.35-.17.7-.19,1.04l-1.04-.08,1.63,2.4h.01c.28.43.64.82,1.09,1.14l7.46,5.23-2.96,8.62c-.06.16-.09.33-.13.49l-1.18.57,1.78,2.5s.05.07.07.1l.04.06h0c.23.3.51.58.84.81.72.52,1.54.78,2.35.78s1.68-.27,2.41-.82l7.28-5.48,7.28,5.48c1.43,1.08,3.3,1.1,4.76.04s2.02-2.84,1.43-4.54l-2.96-8.62,7.46-5.23c1.47-1.03,2.06-2.8,1.51-4.51Z"/>
      <path class="st1" d="M48.85,15.65c-.27-.84-.78-1.52-1.44-2,0,0,0,0,0,0l-.03-.02s-.02-.01-.02-.02l-2.11-1.46s.12.34.27.77c-.18-.02-.36-.04-.54-.04l-9.11.16-2.67-8.71c-.25-.83-.74-1.51-1.37-2h0s-.02-.02-.05-.04c-.04-.03-.07-.05-.11-.07-.55-.37-2.31-1.54-2.31-1.54l-.41.85c-1.61.16-2.93,1.21-3.42,2.8l-2.67,8.71-9.11-.16s-.05,0-.07,0c-1.76,0-3.25,1.08-3.8,2.76-.11.35-.17.7-.19,1.04l-1.04-.08,1.63,2.4h.01c.28.43.64.82,1.09,1.14l7.46,5.23-2.96,8.62c-.06.16-.09.33-.13.49l-1.18.57,1.78,2.5s.05.07.07.1l.04.06h0c.23.3.51.58.84.81.72.52,1.54.78,2.35.78s1.68-.27,2.41-.82l7.28-5.48,7.28,5.48c1.43,1.08,3.3,1.1,4.76.04s2.02-2.84,1.43-4.54l-2.96-8.62,7.46-5.23c1.47-1.03,2.06-2.8,1.51-4.51Z"/>
      <path class="st1" d="M93.65,15.65c-.27-.84-.78-1.52-1.44-2,0,0,0,0,0,0l-.03-.02s-.02-.01-.02-.02l-2.11-1.46s.12.34.27.77c-.18-.02-.36-.04-.54-.04l-9.11.16-2.67-8.71c-.25-.83-.74-1.51-1.37-2h0s-.02-.02-.05-.04c-.04-.03-.07-.05-.11-.07-.55-.37-2.31-1.54-2.31-1.54l-.41.85c-1.61.16-2.93,1.21-3.42,2.8l-2.67,8.71-9.11-.16s-.05,0-.07,0c-1.76,0-3.25,1.08-3.8,2.76-.11.35-.17.7-.19,1.04l-1.04-.08,1.63,2.4h.01c.28.43.64.82,1.09,1.14l7.46,5.23-2.96,8.62c-.06.16-.09.33-.13.49l-1.18.57,1.78,2.5s.05.07.07.1l.04.06h0c.23.3.51.58.84.81.72.52,1.54.78,2.35.78s1.68-.27,2.41-.82l7.28-5.48,7.28,5.48c1.43,1.08,3.3,1.1,4.76.04s2.02-2.84,1.43-4.54l-2.96-8.62,7.46-5.23c1.47-1.03,2.06-2.8,1.51-4.51Z"/>
      <path class="st1" d="M138.46,15.65c-.27-.84-.78-1.52-1.44-2,0,0,0,0,0,0l-.03-.02s-.02-.01-.02-.02l-2.11-1.46s.12.34.27.77c-.18-.02-.36-.04-.54-.04l-9.11.16-2.67-8.71c-.25-.83-.74-1.51-1.37-2h0s-.02-.02-.05-.04c-.04-.03-.07-.05-.11-.07-.55-.37-2.31-1.54-2.31-1.54l-.41.85c-1.61.16-2.93,1.21-3.42,2.8l-2.67,8.71-9.11-.16s-.05,0-.07,0c-1.76,0-3.25,1.08-3.8,2.76-.11.35-.17.7-.19,1.04l-1.04-.08,1.63,2.4h.01c.28.43.64.82,1.09,1.14l7.46,5.23-2.96,8.62c-.06.16-.09.33-.13.49l-1.18.57,1.78,2.5s.05.07.07.1l.04.06h0c.23.3.51.58.84.81.72.52,1.54.78,2.35.78s1.68-.27,2.41-.82l7.28-5.48,7.28,5.48c1.43,1.08,3.3,1.1,4.76.04s2.02-2.84,1.43-4.54l-2.96-8.62,7.46-5.23c1.47-1.03,2.06-2.8,1.51-4.51Z"/>
      <path class="st1" d="M183.26,15.65c-.27-.84-.78-1.52-1.44-2,0,0,0,0,0,0l-.03-.02s-.02-.01-.02-.02l-2.11-1.46s.12.34.27.77c-.18-.02-.36-.04-.54-.04l-9.11.16-2.67-8.71c-.25-.83-.74-1.51-1.37-2h0s-.02-.02-.05-.04c-.04-.03-.07-.05-.11-.07-.55-.37-2.31-1.54-2.31-1.54l-.41.85c-1.61.16-2.93,1.21-3.42,2.8l-2.67,8.71-9.11-.16s-.05,0-.07,0c-1.76,0-3.25,1.08-3.8,2.76-.11.35-.17.7-.19,1.04l-1.04-.08,1.63,2.4h.01c.28.43.64.82,1.09,1.14l7.46,5.23-2.96,8.62c-.06.16-.09.33-.13.49l-1.18.57,1.78,2.5s.05.07.07.1l.04.06h0c.23.3.51.58.84.81.72.52,1.54.78,2.35.78s1.68-.27,2.41-.82l7.28-5.48,7.28,5.48c1.43,1.08,3.3,1.1,4.76.04s2.02-2.84,1.43-4.54l-2.96-8.62,7.46-5.23c1.47-1.03,2.06-2.8,1.51-4.51Z"/>
    </g>
    <path class="st3" d="M29.76,2.77l3,9.79,10.24-.17c2.47-.04,3.5,3.13,1.48,4.55l-8.39,5.88,3.33,9.69c.8,2.33-1.9,4.29-3.87,2.81l-8.18-6.16-8.18,6.16c-1.97,1.48-4.67-.48-3.87-2.81l3.33-9.69-8.39-5.88c-2.02-1.42-.99-4.59,1.48-4.55l10.24.17,3-9.79c.72-2.36,4.06-2.36,4.78,0Z"/>
    <path class="st3" d="M74.56,2.77l3,9.79,10.24-.17c2.47-.04,3.5,3.13,1.48,4.55l-8.39,5.88,3.33,9.69c.8,2.33-1.9,4.29-3.87,2.81l-8.18-6.16-8.18,6.16c-1.97,1.48-4.67-.48-3.87-2.81l3.33-9.69-8.39-5.88c-2.02-1.42-.99-4.59,1.48-4.55l10.24.17,3-9.79c.72-2.36,4.06-2.36,4.78,0Z"/>
    <path class="st3" d="M119.37,2.77l3,9.79,10.24-.17c2.47-.04,3.5,3.13,1.48,4.55l-8.39,5.88,3.33,9.69c.8,2.33-1.9,4.29-3.87,2.81l-8.18-6.16-8.18,6.16c-1.97,1.48-4.67-.48-3.87-2.81l3.33-9.69-8.39-5.88c-2.02-1.42-.99-4.59,1.48-4.55l10.24.17,3-9.79c.72-2.36,4.06-2.36,4.78,0Z"/>
    <path class="st3" d="M164.17,2.77l3,9.79,10.24-.17c2.47-.04,3.5,3.13,1.48,4.55l-8.39,5.88,3.33,9.69c.8,2.33-1.9,4.29-3.87,2.81l-8.18-6.16-8.18,6.16c-1.97,1.48-4.67-.48-3.87-2.81l3.33-9.69-8.39-5.88c-2.02-1.42-.99-4.59,1.48-4.55l10.24.17,3-9.79c.72-2.36,4.06-2.36,4.78,0Z"/>
    <path class="st3" d="M211.51,11.03l-2.53-8.26c-.72-2.36-4.06-2.36-4.78,0l-3,9.79-10.24-.17c-2.47-.04-3.5,3.13-1.48,4.55l8.39,5.88-3.33,9.69c-.8,2.33,1.9,4.29,3.87,2.81l8.18-6.16,4.92,3.71V11.03Z"/>
    <path class="st2" d="M29.76,2.77l3,9.79,10.24-.17c2.47-.04,3.5,3.13,1.48,4.55l-8.39,5.88,3.33,9.69c.8,2.33-1.9,4.29-3.87,2.81l-8.18-6.16-8.18,6.16c-1.97,1.48-4.67-.48-3.87-2.81l3.33-9.69-8.39-5.88c-2.02-1.42-.99-4.59,1.48-4.55l10.24.17,3-9.79c.72-2.36,4.06-2.36,4.78,0Z"/>
    <path class="st2" d="M74.56,2.77l3,9.79,10.24-.17c2.47-.04,3.5,3.13,1.48,4.55l-8.39,5.88,3.33,9.69c.8,2.33-1.9,4.29-3.87,2.81l-8.18-6.16-8.18,6.16c-1.97,1.48-4.67-.48-3.87-2.81l3.33-9.69-8.39-5.88c-2.02-1.42-.99-4.59,1.48-4.55l10.24.17,3-9.79c.72-2.36,4.06-2.36,4.78,0Z"/>
    <path class="st2" d="M119.37,2.77l3,9.79,10.24-.17c2.47-.04,3.5,3.13,1.48,4.55l-8.39,5.88,3.33,9.69c.8,2.33-1.9,4.29-3.87,2.81l-8.18-6.16-8.18,6.16c-1.97,1.48-4.67-.48-3.87-2.81l3.33-9.69-8.39-5.88c-2.02-1.42-.99-4.59,1.48-4.55l10.24.17,3-9.79c.72-2.36,4.06-2.36,4.78,0Z"/>
    <path class="st2" d="M164.17,2.77l3,9.79,10.24-.17c2.47-.04,3.5,3.13,1.48,4.55l-8.39,5.88,3.33,9.69c.8,2.33-1.9,4.29-3.87,2.81l-8.18-6.16-8.18,6.16c-1.97,1.48-4.67-.48-3.87-2.81l3.33-9.69-8.39-5.88c-2.02-1.42-.99-4.59,1.48-4.55l10.24.17,3-9.79c.72-2.36,4.06-2.36,4.78,0Z"/>
    <path class="st2" d="M208.98,2.77l3,9.79,10.24-.17c2.47-.04,3.5,3.13,1.48,4.55l-8.39,5.88,3.33,9.69c.8,2.33-1.9,4.29-3.87,2.81l-8.18-6.16-8.18,6.16c-1.97,1.48-4.67-.48-3.87-2.81l3.33-9.69-8.39-5.88c-2.02-1.42-.99-4.59,1.48-4.55l10.24.17,3-9.79c.72-2.36,4.06-2.36,4.78,0Z"/>
  </g>
  <text class="st0" transform="translate(77.53 66.28)"><tspan x="0" y="0">Nota 4.8 / 5.0</tspan><tspan x="-54.35" y="14.4">Com mais de 3000 avaliações</tspan></text>
</svg>