<?xml version="1.0" encoding="UTF-8"?>
<svg xmlns="http://www.w3.org/2000/svg" version="1.1" viewBox="0 0 500 500">
  <!-- Generator: Adobe Illustrator 30.6.0, SVG Export Plug-In . SVG Version: 2.1.4 Build 109)  -->
  <defs>
    <style>
      .st0 {
        fill: #010101;
      }

      .st1 {
        fill: #fff;
      }

      .st2 {
        fill: #fdc700;
      }
    </style>
  </defs>
  <g id="Layer_2">
    <rect class="st0" width="500" height="500" rx="15.23" ry="15.23"/>
  </g>
  <g id="Layer_1">
    <path class="st1" d="M238.53,330.68c13.9,0,26.91-3.01,39.03-9.06,6.06-3.03,11.53-6.96,16.41-11.8,9.13-9.06,23.48-10.21,34.22-3.13l23.26,15.35c10.4,6.86,12.42,21.4,4.12,30.69-3.02,3.38-6.26,6.62-9.71,9.71-9.44,8.41-19.96,15.59-31.47,21.51-11.51,5.92-23.81,10.43-36.78,13.53-13.01,3.1-26.16,4.65-39.45,4.65-21.89,0-42.18-3.9-60.96-11.74-18.79-7.84-35.08-18.6-48.99-32.36-13.9-13.76-24.75-29.82-32.6-48.33-7.84-18.46-11.74-38.33-11.74-59.6s3.9-41.14,11.74-59.6c7.84-18.46,18.69-34.57,32.6-48.33,13.9-13.76,30.2-24.52,48.99-32.36,18.79-7.84,38.94-11.74,60.49-11.74,13.57,0,26.96,1.64,40.11,4.88,13.15,3.24,25.5,7.84,37.01,13.76,11.51,5.92,22.03,13.06,31.47,21.51,3.43,3.05,6.63,6.26,9.6,9.61,8.24,9.3,6.15,23.79-4.23,30.62l-22.76,14.95c-10.73,7.05-24.99,5.75-34.12-3.28-4.75-4.69-10.25-8.62-16.5-11.8-12.87-6.48-26.07-9.77-39.69-9.77-11.23,0-21.65,1.97-31.23,5.96-9.63,3.99-17.94,9.53-25.03,16.63-7.09,7.09-12.73,15.69-16.86,25.69-4.13,10.05-6.2,21.14-6.2,33.25s2.07,23.11,6.2,33.02c4.13,9.91,9.77,18.41,16.86,25.5,7.09,7.09,15.5,12.54,25.27,16.39,9.77,3.85,20.1,5.78,31.05,5.78l-.09-.09Z"/>
    <path class="st2" d="M455.13,259.34h-89.28c-4.62,0-8.37-3.75-8.37-8.37s3.75-8.37,8.37-8.37h89.28c4.62,0,8.37,3.75,8.37,8.37s-3.75,8.37-8.37,8.37Z"/>
    <path class="st2" d="M361.59,225.52c-3.1,0-6.09-1.73-7.53-4.71-2.02-4.16-.29-9.16,3.87-11.18l54.85-26.64c4.16-2.02,9.16-.29,11.18,3.87,2.02,4.16.29,9.16-3.87,11.18l-54.85,26.64c-1.18.57-2.42.84-3.65.84Z"/>
    <path class="st2" d="M416.43,319.81c-1.23,0-2.47-.27-3.65-.84l-54.85-26.64c-4.16-2.02-5.89-7.03-3.87-11.18,2.02-4.16,7.02-5.89,11.18-3.87l54.85,26.64c4.16,2.02,5.89,7.03,3.87,11.18-1.45,2.98-4.43,4.71-7.53,4.71Z"/>
  </g>
</svg>